<svg xmlns="http://www.w3.org/2000/svg" width="48" height="48" fill="none">
  <g clip-path="url(#a)">
    <circle cx="24" cy="24" r="24" fill="#F0F9FF"/>
    <g filter="url(#b)">
      <path fill="#000" d="M13.447 37v-.756l1.045-.288c.455-.12.767-.348.935-.684.193-.336.289-.744.289-1.224V16.624c-.216-.456-.409-.792-.576-1.008-.145-.24-.3-.444-.469-.612a6.506 6.506 0 0 0-.683-.576l-.649-.468v-.756h6.156l11.953 16.344V16.192c0-.48-.085-.9-.253-1.26-.143-.36-.456-.6-.936-.72l-1.08-.252v-.756h5.365v.756l-.9.252c-.456.144-.744.396-.864.756-.096.336-.145.744-.145 1.224v20.952H30.62L16.904 18.28v15.732c0 .504.072.924.215 1.26.145.336.445.564.9.684l.973.288V37h-5.545Z"/>
    </g>
  </g>
  <defs>
    <clipPath id="a">
      <path fill="#fff" d="M0 0h48v48H0z"/>
    </clipPath>
    <filter id="b" width="25.204" height="27.94" x="11.34" y="12.204" color-interpolation-filters="sRGB" filterUnits="userSpaceOnUse">
      <feFlood flood-opacity="0" result="BackgroundImageFix"/>
      <feColorMatrix in="SourceAlpha" result="hardAlpha" values="0 0 0 0 0 0 0 0 0 0 0 0 0 0 0 0 0 0 127 0"/>
      <feOffset dy="1"/>
      <feGaussianBlur stdDeviation="1"/>
      <feComposite in2="hardAlpha" operator="out"/>
      <feColorMatrix values="0 0 0 0 0 0 0 0 0 0 0 0 0 0 0 0 0 0 0.1 0"/>
      <feBlend in2="BackgroundImageFix" result="effect1_dropShadow_101_58"/>
      <feColorMatrix in="SourceAlpha" result="hardAlpha" values="0 0 0 0 0 0 0 0 0 0 0 0 0 0 0 0 0 0 127 0"/>
      <feOffset dy="1"/>
      <feGaussianBlur stdDeviation="1"/>
      <feComposite in2="hardAlpha" operator="out"/>
      <feColorMatrix values="0 0 0 0 0 0 0 0 0 0 0 0 0 0 0 0 0 0 0.1 0"/>
      <feBlend in2="effect1_dropShadow_101_58" result="effect2_dropShadow_101_58"/>
      <feBlend in="SourceGraphic" in2="effect2_dropShadow_101_58" result="shape"/>
    </filter>
  </defs>
</svg>
