<?xml version="1.0" standalone="no"?>
<!DOCTYPE svg PUBLIC "-//W3C//DTD SVG 20010904//EN"
 "http://www.w3.org/TR/2001/REC-SVG-20010904/DTD/svg10.dtd">
<svg version="1.0" xmlns="http://www.w3.org/2000/svg"
 width="700.000000pt" height="700.000000pt" viewBox="0 0 700.000000 700.000000"
 preserveAspectRatio="xMidYMid meet">
<metadata>
Created by potrace 1.14, written by Peter Selinger 2001-2017
</metadata>
<g transform="translate(0.000000,700.000000) scale(0.100000,-0.100000)"
fill="#000000" stroke="none">
<path d="M1950 5017 l0 -53 63 -44 c119 -84 201 -179 266 -307 l21 -42 0
-1263 c0 -785 -4 -1289 -10 -1332 -13 -90 -52 -160 -104 -191 -41 -23 -57 -29
-168 -60 l-58 -16 0 -49 0 -50 405 0 405 0 0 50 0 49 -100 31 c-117 36 -159
68 -187 138 -17 44 -18 111 -21 1250 -1 661 1 1202 5 1202 5 -1 456 -617 1003
-1370 l995 -1370 148 0 147 0 0 1575 c0 1097 3 1589 11 1625 18 86 71 127 207
161 l52 13 0 53 0 53 -386 0 -385 0 3 -52 3 -51 91 -23 c141 -34 171 -55 206
-143 l23 -56 3 -1028 c1 -566 -1 -1026 -5 -1023 -5 2 -397 538 -873 1190
l-865 1185 -447 0 -448 1 0 -53z"/>
</g>
</svg>
